<svg width="23" height="23" viewBox="0 0 23 23" fill="none" xmlns="http://www.w3.org/2000/svg">
<path d="M8.56445 0C13.2945 0 17.1289 3.83443 17.1289 8.56445C17.1289 10.132 16.705 11.5994 15.9697 12.8633L21.749 18.6475C22.606 19.5051 22.6057 20.895 21.748 21.752C20.8904 22.6089 19.5005 22.6086 18.6436 21.751L12.8652 15.9688C11.601 16.7047 10.1327 17.1289 8.56445 17.1289C3.83443 17.1289 0 13.2945 0 8.56445C2.62854e-05 3.83445 3.83445 2.62863e-05 8.56445 0Z" fill="url(#paint0_linear_59618_3734)"/>
<path d="M8.56319 15.9858C6.48868 15.9858 4.73315 15.2671 3.2966 13.8298C1.86004 12.3925 1.14139 10.6369 1.14063 8.56319C1.13986 6.48944 1.85852 4.73391 3.2966 3.2966C4.73467 1.85928 6.4902 1.14062 8.56319 1.14062C10.6362 1.14062 12.3921 1.85928 13.8309 3.2966C15.2698 4.73391 15.988 6.48944 15.9858 8.56319C15.9858 9.40061 15.8525 10.1904 15.5861 10.9327C15.3196 11.675 14.958 12.3316 14.5012 12.9025L20.8961 19.2974C21.1054 19.5067 21.2101 19.7732 21.2101 20.0967C21.2101 20.4203 21.1054 20.6867 20.8961 20.8961C20.6867 21.1054 20.4203 21.2101 20.0967 21.2101C19.7732 21.2101 19.5067 21.1054 19.2974 20.8961L12.9025 14.5012C12.3316 14.958 11.675 15.3196 10.9327 15.5861C10.1904 15.8525 9.40061 15.9858 8.56319 15.9858ZM8.56319 13.7019C9.99061 13.7019 11.2041 13.2025 12.2037 12.2037C13.2033 11.2049 13.7027 9.99137 13.7019 8.56319C13.7011 7.13502 13.2017 5.9219 12.2037 4.92385C11.2056 3.9258 9.99213 3.42601 8.56319 3.42449C7.13425 3.42297 5.92114 3.92276 4.92385 4.92385C3.92656 5.92495 3.42678 7.13806 3.42449 8.56319C3.42221 9.98833 3.922 11.2018 4.92385 12.2037C5.92571 13.2055 7.13882 13.7049 8.56319 13.7019Z" fill="white"/>
<ellipse cx="9.39078" cy="5.88948" rx="2" ry="1.5" transform="rotate(15.9193 9.39078 5.88948)" fill="white"/>
<defs>
<linearGradient id="paint0_linear_59618_3734" x1="11.1958" y1="0" x2="11.1958" y2="22.3945" gradientUnits="userSpaceOnUse">
<stop offset="0.278846" stop-color="#4F29A8"/>
<stop offset="1" stop-color="#9F75FF"/>
</linearGradient>
</defs>
</svg>
